<svg width="101" height="103" viewBox="0 0 101 103" fill="none" xmlns="http://www.w3.org/2000/svg">
<path d="M69.1068 52.9009V2H2V101H69.1068V77.6509M94.4829 37.6667L98 32.8208L91.4757 27.217L87.0887 33.2877M94.4829 37.6667L68.1748 73.9151C66.3107 75.6274 61.9301 79.2387 59.3204 79.9859C59.3204 77.9623 59.8796 72.7009 62.1165 67.8443L87.0887 33.2877M94.4829 37.6667L87.7476 32.3538L87.0887 33.2877M63.9806 61.3066H60.4854H56.9903H28.5631M63.9806 39.3585H28.5631M63.9806 16.4764H28.5631M18.3107 10.8726H9.92233V23.4811H21.5728V16.0094M23.9029 9.00472L14.1165 19.7453V13.2075M18.3107 32.8208H9.92233V45.8962H21.5728V37.9575M23.9029 31.4198L14.1165 41.6934V36.0896M18.3107 55.2359H9.92233V68.3113H21.5728V60.8396M23.9029 53.8349L14.5825 64.1085V58.0377M18.3107 77.184H9.92233V90.7264H21.5728V82.7877M23.4369 75.783L14.1165 86.9906V79.9859M63.9806 83.7217C63.235 83.7217 40.0583 83.7217 28.5631 83.7217H63.9806Z" stroke="url(#paint0_linear_77_3)" stroke-width="3"/>
<defs>
<linearGradient id="paint0_linear_77_3" x1="50" y1="2" x2="50" y2="101" gradientUnits="userSpaceOnUse">
<stop stop-color="#DFFF60"/>
<stop offset="1" stop-color="#42FF00"/>
</linearGradient>
</defs>
</svg>
