<svg width="278" height="231" viewBox="0 0 278 231" fill="none" xmlns="http://www.w3.org/2000/svg">
<line x1="35" y1="197.5" x2="278" y2="197.5" stroke="#404040"/>
<line x1="35" y1="164.5" x2="278" y2="164.5" stroke="#404040"/>
<line x1="35" y1="131.5" x2="246" y2="131.5" stroke="#404040"/>
<line x1="35" y1="98.5" x2="246" y2="98.5" stroke="#404040"/>
<line y1="65.5" x2="238" y2="65.5" stroke="#404040"/>
<line y1="32.5" x2="238" y2="32.5" stroke="#404040"/>
<line x1="35.5" y1="33" x2="35.5" y2="231" stroke="#404040"/>
<line x1="64.5" y1="33" x2="64.5" y2="231" stroke="#404040"/>
<line x1="93.5" y1="33" x2="93.5" y2="198" stroke="#404040"/>
<line x1="122.5" y1="33" x2="122.5" y2="198" stroke="#404040"/>
<line x1="151.5" y1="33" x2="151.5" y2="198" stroke="#404040"/>
<line x1="180.5" y1="33" x2="180.5" y2="198" stroke="#404040"/>
<line x1="209.5" y1="-2.18557e-08" x2="209.5" y2="198" stroke="#404040"/>
<line x1="238.5" y1="-2.18557e-08" x2="238.5" y2="198" stroke="#404040"/>
<circle cx="64.5" cy="99.5" r="3.5" fill="#00DC82"/>
<circle cx="208.5" cy="198.5" r="3.5" fill="#00DC82"/>
<circle cx="64.5" cy="65.5" r="3.5" fill="#00DC82"/>
<circle cx="208.5" cy="164.5" r="3.5" fill="#00DC82"/>
<circle cx="64.5" cy="31.5" r="3.5" fill="#00DC82"/>
<circle cx="208.5" cy="130.5" r="3.5" fill="#00DC82"/>
</svg>
