<svg width="39" height="39" viewBox="0 0 39 39" fill="none" xmlns="http://www.w3.org/2000/svg">
<path d="M35.3438 0H3.65625C1.64531 0 0 1.64531 0 3.65625V35.3438C0 37.3547 1.64531 39 3.65625 39H35.3438C37.3547 39 39 37.3547 39 35.3438V3.65625C39 1.64531 37.3547 0 35.3438 0ZM14.625 31.6875H9.75V14.625H14.625V31.6875ZM12.1875 12.1875C10.8396 12.1875 9.75 11.0979 9.75 9.75C9.75 8.40206 10.8396 7.3125 12.1875 7.3125C13.5354 7.3125 14.625 8.40206 14.625 9.75C14.625 11.0979 13.5354 12.1875 12.1875 12.1875ZM31.6875 31.6875H26.8125V21.9375C26.8125 20.5896 25.7229 19.5 24.375 19.5C23.0271 19.5 21.9375 20.5896 21.9375 21.9375V31.6875H17.0625V14.625H21.9375V17.6499C22.9417 16.2703 24.4823 14.625 26.2031 14.625C29.2354 14.625 31.6875 17.3526 31.6875 20.7188V31.6875Z" fill="#0C64C5"/>
</svg>
