<svg width="30" height="29" viewBox="0 0 30 29" fill="none" xmlns="http://www.w3.org/2000/svg">
<path d="M27.2408 0H3.69738C2.20328 0 0.980835 1.22245 0.980835 2.71655V26.26C0.980835 27.7541 2.20328 28.9765 3.69738 28.9765H27.2408C28.7349 28.9765 29.9574 27.7541 29.9574 26.26V2.71655C29.9574 1.22245 28.7349 0 27.2408 0ZM11.847 23.5434H8.22497V10.8662H11.847V23.5434ZM10.036 9.05516C9.0345 9.05516 8.22497 8.24563 8.22497 7.24413C8.22497 6.24263 9.0345 5.4331 10.036 5.4331C11.0375 5.4331 11.847 6.24263 11.847 7.24413C11.847 8.24563 11.0375 9.05516 10.036 9.05516ZM24.5243 23.5434H20.9022V16.2993C20.9022 15.2978 20.0927 14.4883 19.0912 14.4883C18.0897 14.4883 17.2801 15.2978 17.2801 16.2993V23.5434H13.6581V10.8662H17.2801V13.1137C18.0263 12.0886 19.1708 10.8662 20.4494 10.8662C22.7024 10.8662 24.5243 12.8927 24.5243 15.3938V23.5434Z" fill="#AAAAAA"/>
</svg>
