<svg width="43" height="41" viewBox="0 0 43 41" fill="none" xmlns="http://www.w3.org/2000/svg">
<path d="M39.1252 1.48198C38.3548 0.711655 37.106 0.711655 36.3357 1.48198L28.0304 9.78725C25.8956 9.1405 23.6372 8.79346 21.2973 8.79346C12.1245 8.79346 4.17149 14.1358 0.264667 21.9389C1.95517 25.312 4.40022 28.225 7.37108 30.4466L0.840437 36.9772C0.0701149 37.7476 0.0701149 38.9964 0.840437 39.7667C1.22428 40.1505 1.72907 40.3451 2.23385 40.3451C2.73864 40.3451 3.24342 40.1532 3.62727 39.7667L39.1199 4.27406C39.8902 3.50374 39.8902 2.25493 39.1199 1.48461L39.1252 1.48198ZM17.3563 14.049C19.0915 14.049 20.5638 15.169 21.0923 16.728L16.0918 21.7286C14.5353 21.2001 13.4127 19.7278 13.4127 17.9926C13.4127 15.8157 15.1795 14.049 17.3563 14.049ZM4.79195 21.9363C6.36414 19.4491 8.45952 17.338 10.9309 15.7632C11.0912 15.6606 11.2542 15.5607 11.4172 15.4634C11.0071 16.5861 10.7836 17.7981 10.7836 19.0627C10.7836 21.3184 11.4935 23.4059 12.7029 25.1174L10.2 27.6203C8.04676 26.106 6.2064 24.1736 4.79195 21.9363Z" fill="url(#paint0_linear_155_25)"/>
<path d="M31.816 19.06C31.816 17.9452 31.6425 16.87 31.3191 15.8604L18.1001 29.0794C19.1097 29.4028 20.185 29.5763 21.2997 29.5763C27.1073 29.5763 31.816 24.8676 31.816 19.06Z" fill="url(#paint1_linear_155_25)"/>
<path d="M34.3631 12.816L31.5131 15.6659C31.5657 15.6975 31.6183 15.729 31.6683 15.7632C34.1396 17.3406 36.235 19.4518 37.8072 21.9363C36.235 24.4234 34.1396 26.5345 31.6683 28.1094C28.5633 30.0891 24.9772 31.1381 21.2992 31.1381C19.7112 31.1381 18.139 30.9435 16.6168 30.5623L13.4592 33.7198C15.9122 34.6006 18.5518 35.0817 21.2992 35.0817C30.472 35.0817 38.425 29.7394 42.3318 21.9363C40.4836 18.2424 37.7257 15.1007 34.3631 12.816Z" fill="url(#paint2_linear_155_25)"/>
<defs>
<linearGradient id="paint0_linear_155_25" x1="-4.9506" y1="27.5201" x2="22.233" y2="27.5201" gradientUnits="userSpaceOnUse">
<stop stop-color="#00DC82"/>
<stop offset="1" stop-color="#35E3D9"/>
</linearGradient>
<linearGradient id="paint1_linear_155_25" x1="16.2869" y1="25.1163" x2="25.7416" y2="25.1163" gradientUnits="userSpaceOnUse">
<stop stop-color="#00DC82"/>
<stop offset="1" stop-color="#35E3D9"/>
</linearGradient>
<linearGradient id="paint2_linear_155_25" x1="9.64228" y1="27.8416" x2="29.545" y2="27.8416" gradientUnits="userSpaceOnUse">
<stop stop-color="#00DC82"/>
<stop offset="1" stop-color="#35E3D9"/>
</linearGradient>
</defs>
</svg>
