<svg width="88" height="94" viewBox="0 0 88 94" fill="none" xmlns="http://www.w3.org/2000/svg">
<path d="M13.6925 48.317V49.817H15.1925H15.3805V62.0094H1.5V49.817H1.68805H3.18805V48.317V43.2528C3.18805 41.2892 4.78859 39.6887 6.7522 39.6887H10.1283C12.0919 39.6887 13.6925 41.2892 13.6925 43.2528V48.317ZM11.8164 49.817H13.3164V48.317V43.2528C13.3164 41.4943 11.8868 40.0648 10.1283 40.0648H6.7522C4.99366 40.0648 3.56415 41.4943 3.56415 43.2528V48.317V49.817H5.06415H11.8164Z" stroke="url(#paint0_linear_77_28)" stroke-width="3"/>
<path d="M84.6755 41.3017C84.6755 42.3644 83.6707 43.415 82.1887 43.415C80.7067 43.415 79.7019 42.3644 79.7019 41.3017C79.7019 40.2391 80.7067 39.1885 82.1887 39.1885C83.6707 39.1885 84.6755 40.2391 84.6755 41.3017Z" stroke="url(#paint1_linear_77_28)" stroke-width="2"/>
<path d="M78.702 47.5659H78.2074C78.3547 47.5179 78.52 47.4904 78.702 47.4904H85.6756C85.8576 47.4904 86.0228 47.5179 86.1701 47.5659H85.6756H78.702ZM77.3774 48.5659C77.3774 48.3293 77.4904 48.0703 77.702 47.8657V48.5659V57.9432H77.3774V48.5659ZM87.0001 48.5659V57.9432H86.6756V48.5659V47.8657C86.8871 48.0703 87.0001 48.3293 87.0001 48.5659Z" stroke="url(#paint2_linear_77_28)" stroke-width="2"/>
<path d="M25.736 52.3019C26.1511 48.9811 27.3963 44.4151 32.3774 41.5094L41.5095 31.9623H46.4906L58.1133 43.5849C59.3586 44.6918 61.8491 47.9849 61.8491 52.3019M25.736 52.3019L31.5472 50.2264M25.736 52.3019C25.736 59.7736 29.4502 65.7233 32.3774 68.0755M61.8491 52.3019L56.868 50.2264H56.0378M61.8491 52.3019V58.1132C61.434 60.4654 59.3586 65.751 54.3774 68.0755M31.5472 50.2264V58.1132C31.5472 68.9057 53.5473 73.0566 56.0378 58.1132V50.2264M31.5472 50.2264H56.0378M54.3774 68.0755H32.3774M54.3774 68.0755C59.0265 67.4113 59.6353 69.4591 59.3586 70.566V74.3019M32.3774 68.0755C30.7171 67.522 27.6454 67.7434 28.6416 73.0566V74.3019M39.434 60.6038C42.478 61.2956 48.566 61.351 48.566 56.0377M31.5472 92.151L28.6416 87.5849V85.9245M31.5472 92.151H55.2077M31.5472 92.151H25.736C21.0869 92.151 20.2014 88 20.3397 85.9245V81.3585M55.2077 92.151C56.5913 92.4277 59.3586 91.9019 59.3586 87.5849V85.9245M55.2077 92.151H65.1699C68.9383 87.9115 68.4749 83.9784 67.097 81.3585M59.3586 85.9245H28.6416M59.3586 85.9245V74.3019M28.6416 85.9245V74.3019M59.3586 74.3019L65.1699 78.8679C65.8136 79.4312 66.5322 80.2845 67.097 81.3585M28.6416 74.3019L20.3397 81.3585M20.3397 81.3585C16.7423 78.0377 9.29823 70.483 8.302 66.8302M67.097 81.3585C69.7754 79.4214 75.9624 73.8038 79.2831 66.8302L80.736 63.0943L82.1888 59.3585M82.1888 39.434C80.8051 33.2076 74.468 19.4264 60.1888 14.1132M28.6416 14.1132C24.0756 15.3585 13.6152 21.0038 8.302 33.6227M82.1888 59.3585H88.0001M82.1888 59.3585H76.3775" stroke="url(#paint3_linear_77_28)" stroke-width="3"/>
<path d="M59.1038 16.6038C59.1038 24.9454 52.3416 31.7075 44 31.7075C35.6584 31.7075 28.8962 24.9454 28.8962 16.6038C28.8962 8.26219 35.6584 1.5 44 1.5C52.3416 1.5 59.1038 8.26219 59.1038 16.6038Z" stroke="url(#paint4_linear_77_28)" stroke-width="3"/>
<circle cx="43.9999" cy="77.2076" r="3.48113" stroke="url(#paint5_linear_77_28)" stroke-width="3"/>
<defs>
<linearGradient id="paint0_linear_77_28" x1="8.44025" y1="38.1887" x2="8.44025" y2="63.5094" gradientUnits="userSpaceOnUse">
<stop stop-color="#F477FF"/>
<stop offset="1" stop-color="#6100FF"/>
</linearGradient>
<linearGradient id="paint1_linear_77_28" x1="82.5" y1="36.9998" x2="82.1887" y2="44.415" gradientUnits="userSpaceOnUse">
<stop stop-color="#F477FF"/>
<stop offset="1" stop-color="#6100FF"/>
</linearGradient>
<linearGradient id="paint2_linear_77_28" x1="82.1888" y1="46.4904" x2="82.5001" y2="75.4999" gradientUnits="userSpaceOnUse">
<stop stop-color="#6100FF"/>
<stop offset="1" stop-color="#F477FF"/>
</linearGradient>
<linearGradient id="paint3_linear_77_28" x1="48.1511" y1="14.1132" x2="48.1511" y2="92.2118" gradientUnits="userSpaceOnUse">
<stop stop-color="#F477FF"/>
<stop offset="1" stop-color="#6100FF"/>
</linearGradient>
<linearGradient id="paint4_linear_77_28" x1="44" y1="0" x2="44" y2="33.2075" gradientUnits="userSpaceOnUse">
<stop stop-color="#F477FF"/>
<stop offset="1" stop-color="#6100FF"/>
</linearGradient>
<linearGradient id="paint5_linear_77_28" x1="43.9999" y1="72.2264" x2="43.9999" y2="82.1887" gradientUnits="userSpaceOnUse">
<stop stop-color="#F477FF"/>
<stop offset="1" stop-color="#6100FF"/>
</linearGradient>
</defs>
</svg>
