<svg width="142" height="142" viewBox="0 0 142 142" fill="none" xmlns="http://www.w3.org/2000/svg">
<path d="M65.5 4.33012C68.9034 2.36516 73.0966 2.36517 76.5 4.33013L125.988 32.9019C129.391 34.8669 131.488 38.4983 131.488 42.4282V99.5718C131.488 103.502 129.391 107.133 125.988 109.098L76.5 137.67C73.0966 139.635 68.9034 139.635 65.5 137.67L16.0122 109.098C12.6088 107.133 10.5122 103.502 10.5122 99.5718V42.4282C10.5122 38.4983 12.6088 34.8669 16.0122 32.9019L65.5 4.33012Z" fill="black" stroke="url(#paint0_linear_2_117)" stroke-width="2"/>
<path d="M85.5 67.7172V83.2172L75 94.2172L71.5 80.7172M71.5 80.7172C80.3333 73.8838 97.3 57.6172 94.5 47.2172C90.9237 46.3827 82.8965 47.6628 73.1994 56.2172M71.5 80.7172L61 70.2172M61 70.2172L48 67.7172L57.5 56.2172H73.1994M61 70.2172C65.2141 64.1807 69.3391 59.6226 73.1994 56.2172M58.5 78.2172C55.3333 79.5505 49.2 84.2172 50 92.2172C53.3333 92.3838 60.8 91.0172 64 84.2172" stroke="url(#paint1_linear_2_117)" stroke-width="3"/>
<defs>
<linearGradient id="paint0_linear_2_117" x1="12" y1="71" x2="131" y2="71" gradientUnits="userSpaceOnUse">
<stop offset="0.515625" stop-color="#00DC82"/>
<stop offset="1" stop-color="#35E3D8"/>
</linearGradient>
<linearGradient id="paint1_linear_2_117" x1="48" y1="94" x2="105" y2="99.5" gradientUnits="userSpaceOnUse">
<stop offset="0.456792" stop-color="#00DC82"/>
<stop offset="0.623761" stop-color="#35E3D9"/>
</linearGradient>
</defs>
</svg>
