<svg width="41" height="34" viewBox="0 0 41 34" fill="none" xmlns="http://www.w3.org/2000/svg">
<path d="M40.4199 4.68323C38.9611 5.33575 37.3881 5.76993 35.7457 5.96345C37.4278 4.95615 38.7155 3.35836 39.3283 1.45788C37.7553 2.38827 36.0087 3.07056 34.1578 3.43527C32.6692 1.85237 30.5529 0.869873 28.2107 0.869873C23.7126 0.869873 20.0705 4.51452 20.0705 9.01017C20.0705 9.64531 20.1399 10.2656 20.2789 10.8635C13.5106 10.5211 7.50895 7.28088 3.49214 2.35105C2.79497 3.55188 2.39056 4.95615 2.39056 6.44477C2.39056 9.2682 3.8246 11.7641 6.0104 13.2205C4.6756 13.1808 3.42019 12.8086 2.31861 12.2057V12.3075C2.31861 16.2548 5.12467 19.5496 8.85367 20.2939C8.17139 20.48 7.4494 20.5817 6.70509 20.5817C6.17911 20.5817 5.67298 20.5272 5.16933 20.4354C6.20888 23.6682 9.2159 26.0251 12.7762 26.0946C9.98503 28.2804 6.47932 29.583 2.65851 29.583C1.99856 29.583 1.35597 29.5433 0.713379 29.4663C4.32577 31.7836 8.60557 33.1259 13.2029 33.1259C28.181 33.1259 36.3783 20.7132 36.3783 9.95048C36.3783 9.59321 36.3709 9.24586 36.356 8.89604C37.9464 7.75724 39.3258 6.32072 40.4175 4.68571L40.4199 4.68323Z" fill="#0094FF"/>
</svg>
