<svg width="30" height="24" viewBox="0 0 30 24" fill="none" xmlns="http://www.w3.org/2000/svg">
<path d="M29.706 3.15115C28.6414 3.62733 27.4935 3.94418 26.2949 4.08541C27.5225 3.35031 28.4621 2.1843 28.9094 0.797394C27.7615 1.47636 26.4868 1.97427 25.1361 2.24043C24.0498 1.08528 22.5053 0.368286 20.7962 0.368286C17.5136 0.368286 14.8556 3.02803 14.8556 6.3088C14.8556 6.77231 14.9063 7.22495 15.0077 7.6613C10.0685 7.41144 5.68867 5.04682 2.75734 1.4492C2.24857 2.32552 1.95344 3.35031 1.95344 4.43666C1.95344 6.4971 2.99996 8.31854 4.59508 9.38135C3.62099 9.35238 2.70484 9.0808 1.90094 8.64083V8.71506C1.90094 11.5957 3.9487 14.0001 6.67 14.5433C6.1721 14.6791 5.64522 14.7533 5.10204 14.7533C4.7182 14.7533 4.34884 14.7135 3.98129 14.6465C4.73993 17.0057 6.93435 18.7258 9.53253 18.7765C7.49563 20.3716 4.93728 21.3221 2.14899 21.3221C1.66737 21.3221 1.19843 21.2932 0.729492 21.237C3.3657 22.9281 6.48895 23.9076 9.84395 23.9076C20.7744 23.9076 26.7566 14.8493 26.7566 6.99501C26.7566 6.73429 26.7511 6.4808 26.7403 6.22551C27.9009 5.39446 28.9075 4.34613 29.7042 3.15296L29.706 3.15115Z" fill="#AAAAAA"/>
</svg>
